<svg viewBox="0, 0, 540, 540" width="540" height="540"><line stroke-width="0.4" stroke="#FFFFFF" x1="160.18110636953395" y1="23.34272643649777" x2="160.18110636953395" y2="23.34272643649777"></line><line stroke-width="0.4" stroke="#FFFFFF" x1="162.7700695286092" y1="22.20625106532509" x2="536.6758519606872" y2="312.23730556086224"></line><line stroke-width="0.4" stroke="#FFFFFF" x1="165.3707916579322" y1="21.09694907110486" x2="89.33473628310847" y2="470.6491028788966"></line><line stroke-width="0.4" stroke="#FFFFFF" x1="167.98298755901385" y1="20.014942101301415" x2="200.11885782231937" y2="9.20002690195156"></line><line stroke-width="0.4" stroke="#FFFFFF" x1="170.60637077513695" y1="18.960348810172093" x2="526.7852593996914" y2="353.4345884812358"></line><line stroke-width="0.4" stroke="#FFFFFF" x1="173.24065362276895" y1="17.933284845755537" x2="60.170590406618004" y2="439.9165055834563"></line><line stroke-width="0.4" stroke="#FFFFFF" x1="175.88554722310988" y1="16.93386283718928" x2="241.77731491773355" y2="1.4790882505662353"></line><line stroke-width="0.4" stroke="#FFFFFF" x1="178.54076153377133" y1="15.96219238235912" x2="510.57176153085936" y2="392.5774349296776"></line><line stroke-width="0.4" stroke="#FFFFFF" x1="181.2060053805825" y1="15.018380035880142" x2="36.17314097820156" y2="405"></line><line stroke-width="0.4" stroke="#FFFFFF" x1="183.8809864895211" y1="14.102529297411877" x2="284.1307081855948" y2="0.3700256162650817"></line><line stroke-width="0.4" stroke="#FFFFFF" x1="186.56541151876417" y1="13.214740600308573" x2="488.4345884812359" y2="428.70201811896766"></line><line stroke-width="0.4" stroke="#FFFFFF" x1="189.25898609085655" y1="12.355111300605245" x2="17.933284845755537" y2="366.75934637723105"></line><line stroke-width="0.4" stroke="#FFFFFF" x1="191.96141482499263" y1="11.52373566634185" x2="326.136156520795" y2="5.900147801872436"></line><line stroke-width="0.4" stroke="#FFFFFF" x1="194.67240136940808" y1="10.720704867225379" x2="460.91883092036784" y2="460.9188309203678"></line><line stroke-width="0.4" stroke="#FFFFFF" x1="197.39164843387823" y1="9.946106964632293" x2="5.900147801872436" y2="326.136156520795"></line><line stroke-width="0.4" stroke="#FFFFFF" x1="200.11885782231937" y1="9.20002690195156" x2="366.75934637723105" y2="17.933284845755537"></line><line stroke-width="0.4" stroke="#FFFFFF" x1="202.8537304654892" y1="8.482546495269617" x2="428.7020181189678" y2="488.4345884812357"></line><line stroke-width="0.4" stroke="#FFFFFF" x1="205.59596645378315" y1="7.793744424398255" x2="0.3700256162650817" y2="284.13070818559504"></line><line stroke-width="0.4" stroke="#FFFFFF" x1="208.34526507012293" y1="7.133696224246705" x2="405" y2="36.17314097820156"></line><line stroke-width="0.4" stroke="#FFFFFF" x1="211.10132482293352" y1="6.50247427653818" x2="392.5774349296777" y2="510.5717615308593"></line><line stroke-width="0.4" stroke="#FFFFFF" x1="213.86384347920497" y1="5.900147801872436" x2="1.4790882505661784" y2="241.7773149177338"></line><line stroke-width="0.4" stroke="#FFFFFF" x1="216.63251809763594" y1="5.326782852135125" x2="439.9165055834561" y2="60.17059040661786"></line><line stroke-width="0.4" stroke="#FFFFFF" x1="219.4070450618543" y1="4.782442303254072" x2="353.4345884812358" y2="526.7852593996914"></line><line stroke-width="0.4" stroke="#FFFFFF" x1="222.18712011371247" y1="4.267185848304678" x2="9.20002690195156" y2="200.1188578223194"></line><line stroke-width="0.4" stroke="#FFFFFF" x1="224.97243838665233" y1="3.7810699909636583" x2="470.64910287889643" y2="89.33473628310827"></line><line stroke-width="0.4" stroke="#FFFFFF" x1="227.76269443913768" y1="3.3241480393127745" x2="312.23730556086247" y2="536.6758519606872"></line><line stroke-width="0.4" stroke="#FFFFFF" x1="230.5575822881488" y1="2.8964700999931665" x2="23.34272643649777" y2="160.18110636953395"></line><line stroke-width="0.4" stroke="#FFFFFF" x1="233.3567954427378" y1="2.4980830727102443" x2="496.44105334526444" y2="122.94746054594265"></line><line stroke-width="0.4" stroke="#FFFFFF" x1="236.16002693763784" y1="2.1290306450910066" x2="270" y2="540"></line><line stroke-width="0.4" stroke="#FFFFFF" x1="238.96696936692598" y1="1.7893532878929364" x2="43.55894665473551" y2="122.94746054594268"></line><line stroke-width="0.4" stroke="#FFFFFF" x1="241.77731491773355" y1="1.4790882505662353" x2="516.6572735635023" y2="160.1811063695339"></line><line stroke-width="0.4" stroke="#FFFFFF" x1="244.59075540400113" y1="1.1982695571683735" x2="227.76269443913782" y2="536.6758519606872"></line><line stroke-width="0.4" stroke="#FFFFFF" x1="247.4069823002748" y1="0.946928002633797" x2="69.3508971211034" y2="89.33473628310847"></line><line stroke-width="0.4" stroke="#FFFFFF" x1="250.22568677553943" y1="0.7250911493962917" x2="530.7999730980484" y2="200.11885782231928"></line><line stroke-width="0.4" stroke="#FFFFFF" x1="253.04655972708537" y1="0.532783324366676" x2="186.56541151876434" y2="526.7852593996915"></line><line stroke-width="0.4" stroke="#FFFFFF" x1="255.8692918144051" y1="0.3700256162650817" x2="100.08349441654377" y2="60.17059040661795"></line><line stroke-width="0.4" stroke="#FFFFFF" x1="258.6935734931161" y1="0.2368358733082232" x2="538.5209117494337" y2="241.77731491773352"></line><line stroke-width="0.4" stroke="#FFFFFF" x1="261.5190950489053" y1="0.1332287012524489" x2="147.42256507032226" y2="510.57176153085925"></line><line stroke-width="0.4" stroke="#FFFFFF" x1="264.34554663149356" y1="0.0592154617917231" x2="135.0000000000001" y2="36.17314097820153"></line><line stroke-width="0.4" stroke="#FFFFFF" x1="267.1726182886136" y1="0.014804271311732009" x2="539.6299743837349" y2="284.1307081855948"></line><line stroke-width="0.4" stroke="#FFFFFF" x1="269.99999999999994" y1="0" x2="111.2979818810322" y2="488.4345884812358"></line><line stroke-width="0.4" stroke="#FFFFFF" x1="272.82738171138635" y1="0.014804271311732009" x2="173.24065362276895" y2="17.933284845755537"></line><line stroke-width="0.4" stroke="#FFFFFF" x1="275.6544533685063" y1="0.0592154617917231" x2="534.0998521981276" y2="326.136156520795"></line><line stroke-width="0.4" stroke="#FFFFFF" x1="278.4809049510946" y1="0.1332287012524489" x2="79.08116907963228" y2="460.9188309203679"></line><line stroke-width="0.4" stroke="#FFFFFF" x1="281.3064265068839" y1="0.2368358733082232" x2="213.86384347920497" y2="5.900147801872436"></line><line stroke-width="0.4" stroke="#FFFFFF" x1="284.1307081855948" y1="0.3700256162650817" x2="522.0667151542445" y2="366.75934637723105"></line><line stroke-width="0.4" stroke="#FFFFFF" x1="286.9534402729146" y1="0.532783324366676" x2="51.56541151876428" y2="428.7020181189679"></line><line stroke-width="0.4" stroke="#FFFFFF" x1="289.77431322446057" y1="0.7250911493962917" x2="255.8692918144051" y2="0.3700256162650817"></line><line stroke-width="0.4" stroke="#FFFFFF" x1="292.5930176997252" y1="0.946928002633797" x2="503.82685902179844" y2="404.99999999999994"></line><line stroke-width="0.4" stroke="#FFFFFF" x1="295.40924459599887" y1="1.1982695571683735" x2="29.42823846914075" y2="392.5774349296778"></line><line stroke-width="0.4" stroke="#FFFFFF" x1="298.2226850822664" y1="1.4790882505662353" x2="298.2226850822664" y2="1.4790882505662353"></line><line stroke-width="0.4" stroke="#FFFFFF" x1="301.03303063307396" y1="1.7893532878929364" x2="479.82940959338214" y2="439.91650558345606"></line><line stroke-width="0.4" stroke="#FFFFFF" x1="303.8399730623621" y1="2.1290306450909497" x2="13.214740600308517" y2="353.4345884812357"></line><line stroke-width="0.4" stroke="#FFFFFF" x1="306.6432045572622" y1="2.4980830727102443" x2="339.88114217768054" y2="9.20002690195156"></line><line stroke-width="0.4" stroke="#FFFFFF" x1="309.4424177118511" y1="2.8964700999931665" x2="450.6652637168918" y2="470.64910287889643"></line><line stroke-width="0.4" stroke="#FFFFFF" x1="312.23730556086235" y1="3.3241480393127745" x2="3.3241480393127745" y2="312.23730556086224"></line><line stroke-width="0.4" stroke="#FFFFFF" x1="315.0275616133476" y1="3.7810699909636583" x2="379.818893630466" y2="23.342726436497742"></line><line stroke-width="0.4" stroke="#FFFFFF" x1="317.8128798862875" y1="4.267185848304678" x2="417.05253945405735" y2="496.44105334526444"></line><line stroke-width="0.4" stroke="#FFFFFF" x1="320.5929549381456" y1="4.782442303254072" x2="0" y2="270.00000000000017"></line><line stroke-width="0.4" stroke="#FFFFFF" x1="323.36748190236403" y1="5.326782852135125" x2="417.0525394540573" y2="43.55894665473551"></line><line stroke-width="0.4" stroke="#FFFFFF" x1="326.136156520795" y1="5.900147801872436" x2="379.8188936304661" y2="516.6572735635023"></line><line stroke-width="0.4" stroke="#FFFFFF" x1="328.8986751770665" y1="6.50247427653818" x2="3.3241480393127745" y2="227.76269443913782"></line><line stroke-width="0.4" stroke="#FFFFFF" x1="331.654734929877" y1="7.133696224246705" x2="450.66526371689173" y2="69.35089712110354"></line><line stroke-width="0.4" stroke="#FFFFFF" x1="334.40403354621685" y1="7.793744424398255" x2="339.88114217768066" y2="530.7999730980484"></line><line stroke-width="0.4" stroke="#FFFFFF" x1="337.1462695345108" y1="8.482546495269617" x2="13.21474060030846" y2="186.56541151876434"></line><line stroke-width="0.4" stroke="#FFFFFF" x1="339.88114217768054" y1="9.20002690195156" x2="479.8294095933821" y2="100.08349441654383"></line><line stroke-width="0.4" stroke="#FFFFFF" x1="342.60835156612177" y1="9.946106964632293" x2="298.2226850822666" y2="538.5209117494337"></line><line stroke-width="0.4" stroke="#FFFFFF" x1="345.32759863059187" y1="10.720704867225322" x2="29.428238469140723" y2="147.4225650703223"></line><line stroke-width="0.4" stroke="#FFFFFF" x1="348.03858517500737" y1="11.52373566634185" x2="503.8268590217984" y2="134.99999999999994"></line><line stroke-width="0.4" stroke="#FFFFFF" x1="350.74101390914336" y1="12.355111300605245" x2="255.8692918144051" y2="539.6299743837349"></line><line stroke-width="0.4" stroke="#FFFFFF" x1="353.4345884812358" y1="13.214740600308517" x2="51.56541151876425" y2="111.2979818810322"></line><line stroke-width="0.4" stroke="#FFFFFF" x1="356.11901351047885" y1="14.102529297411849" x2="522.0667151542444" y2="173.24065362276892"></line><line stroke-width="0.4" stroke="#FFFFFF" x1="358.79399461941745" y1="15.018380035880114" x2="213.86384347920503" y2="534.0998521981276"></line><line stroke-width="0.4" stroke="#FFFFFF" x1="361.4592384662286" y1="15.962192382359092" x2="79.08116907963208" y2="79.08116907963228"></line><line stroke-width="0.4" stroke="#FFFFFF" x1="364.11445277689006" y1="16.93386283718928" x2="534.0998521981276" y2="213.86384347920495"></line><line stroke-width="0.4" stroke="#FFFFFF" x1="366.75934637723105" y1="17.933284845755537" x2="173.240653622769" y2="522.0667151542445"></line><line stroke-width="0.4" stroke="#FFFFFF" x1="369.393629224863" y1="18.960348810172064" x2="111.29798188103223" y2="51.56541151876422"></line><line stroke-width="0.4" stroke="#FFFFFF" x1="372.0170124409861" y1="20.014942101301415" x2="539.6299743837349" y2="255.86929181440507"></line><line stroke-width="0.4" stroke="#FFFFFF" x1="374.6292083420677" y1="21.09694907110483" x2="135.00000000000006" y2="503.82685902179844"></line><line stroke-width="0.4" stroke="#FFFFFF" x1="377.22993047139073" y1="22.20625106532509" x2="147.4225650703221" y2="29.42823846914081"></line><line stroke-width="0.4" stroke="#FFFFFF" x1="379.818893630466" y1="23.342726436497742" x2="538.5209117494337" y2="298.2226850822665"></line><line stroke-width="0.4" stroke="#FFFFFF" x1="382.39581391030833" y1="24.50625055729151" x2="100.08349441654394" y2="479.82940959338214"></line><line stroke-width="0.4" stroke="#FFFFFF" x1="384.9604087225696" y1="25.696695834174704" x2="186.56541151876417" y2="13.214740600308573"></line><line stroke-width="0.4" stroke="#FFFFFF" x1="387.5123968305284" y1="26.91393172140775" x2="530.7999730980484" y2="339.88114217768054"></line><line stroke-width="0.4" stroke="#FFFFFF" x1="390.05149837993036" y1="28.157824735358503" x2="69.35089712110357" y2="450.6652637168918"></line><line stroke-width="0.4" stroke="#FFFFFF" x1="392.5774349296777" y1="29.428238469140695" x2="227.76269443913768" y2="3.3241480393127745"></line><line stroke-width="0.4" stroke="#FFFFFF" x1="395.08992948236266" y1="30.725033607572016" x2="516.6572735635023" y2="379.8188936304661"></line><line stroke-width="0.4" stroke="#FFFFFF" x1="397.58870651464457" y1="32.04806794245209" x2="43.558946654735536" y2="417.0525394540574"></line><line stroke-width="0.4" stroke="#FFFFFF" x1="400.0734920074631" y1="33.3971963881568" x2="269.99999999999994" y2="0"></line><line stroke-width="0.4" stroke="#FFFFFF" x1="402.544013476088" y1="34.77227099754887" x2="496.44105334526455" y2="417.05253945405724"></line><line stroke-width="0.4" stroke="#FFFFFF" x1="405" y1="36.17314097820156" x2="23.3427264364978" y2="379.8188936304661"></line><line stroke-width="0.4" stroke="#FFFFFF" x1="407.44118225260024" y1="37.599652708935224" x2="312.23730556086235" y2="3.3241480393127745"></line><line stroke-width="0.4" stroke="#FFFFFF" x1="409.86729253074515" y1="39.05164975666318" x2="470.64910287889654" y2="450.6652637168917"></line><line stroke-width="0.4" stroke="#FFFFFF" x1="412.27806478410287" y1="40.528972893546694" x2="9.20002690195156" y2="339.88114217768066"></line><line stroke-width="0.4" stroke="#FFFFFF" x1="414.67323464432906" y1="42.03146011445594" x2="353.4345884812358" y2="13.214740600308517"></line><line stroke-width="0.4" stroke="#FFFFFF" x1="417.0525394540573" y1="43.55894665473551" x2="439.9165055834561" y2="479.82940959338214"></line><line stroke-width="0.4" stroke="#FFFFFF" x1="419.4157182957029" y1="45.111265008273136" x2="1.4790882505662353" y2="298.2226850822665"></line><line stroke-width="0.4" stroke="#FFFFFF" x1="421.7625120200752" y1="46.68824494586826" x2="392.5774349296777" y2="29.428238469140695"></line><line stroke-width="0.4" stroke="#FFFFFF" x1="424.0926632747965" y1="48.289713533899885" x2="405.0000000000001" y2="503.8268590217984"></line><line stroke-width="0.4" stroke="#FFFFFF" x1="426.4059165325233" y1="49.91549515329035" x2="0.3700256162650817" y2="255.86929181440524"></line><line stroke-width="0.4" stroke="#FFFFFF" x1="428.70201811896777" y1="51.56541151876419" x2="428.70201811896777" y2="51.56541151876419"></line><line stroke-width="0.4" stroke="#FFFFFF" x1="430.9807162407162" y1="53.239281698399026" x2="366.75934637723105" y2="522.0667151542444"></line><line stroke-width="0.4" stroke="#FFFFFF" x1="433.24176101284115" y1="54.93692213346699" x2="5.900147801872436" y2="213.86384347920506"></line><line stroke-width="0.4" stroke="#FFFFFF" x1="435.48490448630366" y1="56.658146658563595" x2="460.91883092036784" y2="79.08116907963219"></line><line stroke-width="0.4" stroke="#FFFFFF" x1="437.7099006751438" y1="58.402766522023256" x2="326.1361565207951" y2="534.0998521981276"></line><line stroke-width="0.4" stroke="#FFFFFF" x1="439.9165055834561" y1="60.17059040661786" x2="17.93328484575551" y2="173.240653622769"></line><line stroke-width="0.4" stroke="#FFFFFF" x1="442.1044772321462" y1="61.961424450536896" x2="488.4345884812358" y2="111.29798188103223"></line><line stroke-width="0.4" stroke="#FFFFFF" x1="444.27357568546665" y1="63.775072268646596" x2="284.1307081855949" y2="539.6299743837349"></line><line stroke-width="0.4" stroke="#FFFFFF" x1="446.4235630773285" y1="65.61133497402574" x2="36.17314097820153" y2="135.00000000000009"></line><line stroke-width="0.4" stroke="#FFFFFF" x1="448.55420363738597" y1="67.47001119977588" x2="510.5717615308593" y2="147.42256507032232"></line><line stroke-width="0.4" stroke="#FFFFFF" x1="450.66526371689173" y1="69.35089712110354" x2="241.77731491773366" y2="538.5209117494338"></line><line stroke-width="0.4" stroke="#FFFFFF" x1="452.7565118143184" y1="71.25378647767172" x2="60.170590406617805" y2="100.08349441654394"></line><line stroke-width="0.4" stroke="#FFFFFF" x1="454.8277186007459" y1="73.17847059621889" x2="526.7852593996914" y2="186.56541151876414"></line><line stroke-width="0.4" stroke="#FFFFFF" x1="456.87865694500977" y1="75.12473841344215" x2="200.11885782231937" y2="530.7999730980484"></line><line stroke-width="0.4" stroke="#FFFFFF" x1="458.9091019386086" y1="77.09237649914303" x2="89.33473628310821" y2="69.35089712110363"></line><line stroke-width="0.4" stroke="#FFFFFF" x1="460.91883092036784" y1="79.08116907963219" x2="536.6758519606872" y2="227.7626944391376"></line><line stroke-width="0.4" stroke="#FFFFFF" x1="462.90762350085686" y1="81.0908980613913" x2="160.18110636953395" y2="516.6572735635023"></line><line stroke-width="0.4" stroke="#FFFFFF" x1="464.8752615865577" y1="83.12134305499012" x2="122.9474605459427" y2="43.55894665473551"></line><line stroke-width="0.4" stroke="#FFFFFF" x1="466.8215294037811" y1="85.17228139925405" x2="540" y2="270"></line><line stroke-width="0.4" stroke="#FFFFFF" x1="468.7462135223283" y1="87.24348818568157" x2="122.94746054594268" y2="496.4410533452645"></line><line stroke-width="0.4" stroke="#FFFFFF" x1="470.64910287889643" y1="89.33473628310827" x2="160.18110636953395" y2="23.34272643649777"></line><line stroke-width="0.4" stroke="#FFFFFF" x1="472.52998880022403" y1="91.44579636261398" x2="536.6758519606872" y2="312.23730556086224"></line><line stroke-width="0.4" stroke="#FFFFFF" x1="474.3886650259742" y1="93.57643692267152" x2="89.33473628310847" y2="470.6491028788966"></line><line stroke-width="0.4" stroke="#FFFFFF" x1="476.2249277313534" y1="95.72642431453332" x2="200.11885782231937" y2="9.20002690195156"></line><line stroke-width="0.4" stroke="#FFFFFF" x1="478.0385755494631" y1="97.89552276785378" x2="526.7852593996914" y2="353.4345884812358"></line><line stroke-width="0.4" stroke="#FFFFFF" x1="479.8294095933821" y1="100.08349441654383" x2="60.170590406618004" y2="439.9165055834563"></line><line stroke-width="0.4" stroke="#FFFFFF" x1="481.5972334779767" y1="102.29009932485619" x2="241.77731491773355" y2="1.4790882505662353"></line><line stroke-width="0.4" stroke="#FFFFFF" x1="483.3418533414364" y1="104.51509551369634" x2="510.57176153085936" y2="392.5774349296776"></line><line stroke-width="0.4" stroke="#FFFFFF" x1="485.0630778665329" y1="106.75823898715873" x2="36.17314097820156" y2="405"></line><line stroke-width="0.4" stroke="#FFFFFF" x1="486.76071830160083" y1="109.0192837592837" x2="284.1307081855948" y2="0.3700256162650817"></line><line stroke-width="0.4" stroke="#FFFFFF" x1="488.4345884812358" y1="111.29798188103223" x2="488.4345884812359" y2="428.70201811896766"></line><line stroke-width="0.4" stroke="#FFFFFF" x1="490.08450484670965" y1="113.59408346747671" x2="17.933284845755537" y2="366.75934637723105"></line><line stroke-width="0.4" stroke="#FFFFFF" x1="491.71028646610006" y1="115.90733672520341" x2="326.136156520795" y2="5.900147801872436"></line><line stroke-width="0.4" stroke="#FFFFFF" x1="493.31175505413165" y1="118.23748797992471" x2="460.91883092036784" y2="460.9188309203678"></line><line stroke-width="0.4" stroke="#FFFFFF" x1="494.88873499172684" y1="120.58428170429707" x2="5.900147801872436" y2="326.136156520795"></line><line stroke-width="0.4" stroke="#FFFFFF" x1="496.44105334526444" y1="122.94746054594265" x2="366.75934637723105" y2="17.933284845755537"></line><line stroke-width="0.4" stroke="#FFFFFF" x1="497.96853988554403" y1="125.32676535567091" x2="428.7020181189678" y2="488.4345884812357"></line><line stroke-width="0.4" stroke="#FFFFFF" x1="499.4710271064532" y1="127.72193521589705" x2="0.3700256162650817" y2="284.13070818559504"></line><line stroke-width="0.4" stroke="#FFFFFF" x1="500.9483502433368" y1="130.13270746925483" x2="405" y2="36.17314097820156"></line><line stroke-width="0.4" stroke="#FFFFFF" x1="502.4003472910648" y1="132.55881774739976" x2="392.5774349296777" y2="510.5717615308593"></line><line stroke-width="0.4" stroke="#FFFFFF" x1="503.8268590217984" y1="134.99999999999994" x2="1.4790882505661784" y2="241.7773149177338"></line><line stroke-width="0.4" stroke="#FFFFFF" x1="505.2277290024511" y1="137.45598652391192" x2="439.9165055834561" y2="60.17059040661786"></line><line stroke-width="0.4" stroke="#FFFFFF" x1="506.60280361184317" y1="139.92650799253687" x2="353.4345884812358" y2="526.7852593996914"></line><line stroke-width="0.4" stroke="#FFFFFF" x1="507.9519320575479" y1="142.41129348535543" x2="9.20002690195156" y2="200.1188578223194"></line><line stroke-width="0.4" stroke="#FFFFFF" x1="509.2749663924279" y1="144.91007051763728" x2="470.64910287889643" y2="89.33473628310827"></line><line stroke-width="0.4" stroke="#FFFFFF" x1="510.5717615308593" y1="147.42256507032232" x2="312.23730556086247" y2="536.6758519606872"></line><line stroke-width="0.4" stroke="#FFFFFF" x1="511.84217526464147" y1="149.94850162006952" x2="23.34272643649777" y2="160.18110636953395"></line><line stroke-width="0.4" stroke="#FFFFFF" x1="513.0860682785923" y1="152.48760316947158" x2="496.44105334526444" y2="122.94746054594265"></line><line stroke-width="0.4" stroke="#FFFFFF" x1="514.3033041658252" y1="155.03959127743036" x2="270" y2="540"></line><line stroke-width="0.4" stroke="#FFFFFF" x1="515.4937494427085" y1="157.60418608969164" x2="43.55894665473551" y2="122.94746054594268"></line><line stroke-width="0.4" stroke="#FFFFFF" x1="516.6572735635023" y1="160.1811063695339" x2="516.6572735635023" y2="160.1811063695339"></line><line stroke-width="0.4" stroke="#FFFFFF" x1="517.7937489346749" y1="162.7700695286092" x2="227.76269443913782" y2="536.6758519606872"></line><line stroke-width="0.4" stroke="#FFFFFF" x1="518.9030509288951" y1="165.3707916579321" x2="69.3508971211034" y2="89.33473628310847"></line><line stroke-width="0.4" stroke="#FFFFFF" x1="519.9850578986986" y1="167.98298755901385" x2="530.7999730980484" y2="200.11885782231928"></line><line stroke-width="0.4" stroke="#FFFFFF" x1="521.0396511898279" y1="170.60637077513695" x2="186.56541151876434" y2="526.7852593996915"></line><line stroke-width="0.4" stroke="#FFFFFF" x1="522.0667151542444" y1="173.24065362276892" x2="100.08349441654377" y2="60.17059040661795"></line><line stroke-width="0.4" stroke="#FFFFFF" x1="523.0661371628107" y1="175.88554722310982" x2="538.5209117494337" y2="241.77731491773352"></line><line stroke-width="0.4" stroke="#FFFFFF" x1="524.0378076176409" y1="178.54076153377127" x2="147.42256507032226" y2="510.57176153085925"></line><line stroke-width="0.4" stroke="#FFFFFF" x1="524.9816199641199" y1="181.20600538058252" x2="135.0000000000001" y2="36.17314097820153"></line><line stroke-width="0.4" stroke="#FFFFFF" x1="525.8974707025882" y1="183.8809864895211" x2="539.6299743837349" y2="284.1307081855948"></line><line stroke-width="0.4" stroke="#FFFFFF" x1="526.7852593996914" y1="186.56541151876414" x2="111.2979818810322" y2="488.4345884812358"></line><line stroke-width="0.4" stroke="#FFFFFF" x1="527.6448886993948" y1="189.25898609085652" x2="173.24065362276895" y2="17.933284845755537"></line><line stroke-width="0.4" stroke="#FFFFFF" x1="528.4762643336582" y1="191.96141482499263" x2="534.0998521981276" y2="326.136156520795"></line><line stroke-width="0.4" stroke="#FFFFFF" x1="529.2792951327747" y1="194.67240136940808" x2="79.08116907963228" y2="460.9188309203679"></line><line stroke-width="0.4" stroke="#FFFFFF" x1="530.0538930353678" y1="197.39164843387817" x2="213.86384347920497" y2="5.900147801872436"></line><line stroke-width="0.4" stroke="#FFFFFF" x1="530.7999730980484" y1="200.11885782231928" x2="522.0667151542445" y2="366.75934637723105"></line><line stroke-width="0.4" stroke="#FFFFFF" x1="531.5174535047304" y1="202.85373046548924" x2="51.56541151876428" y2="428.7020181189679"></line><line stroke-width="0.4" stroke="#FFFFFF" x1="532.2062555756017" y1="205.59596645378315" x2="255.8692918144051" y2="0.3700256162650817"></line><line stroke-width="0.4" stroke="#FFFFFF" x1="532.8663037757533" y1="208.34526507012293" x2="503.82685902179844" y2="404.99999999999994"></line><line stroke-width="0.4" stroke="#FFFFFF" x1="533.4975257234619" y1="211.1013248229335" x2="29.42823846914075" y2="392.5774349296778"></line><line stroke-width="0.4" stroke="#FFFFFF" x1="534.0998521981276" y1="213.86384347920495" x2="298.2226850822664" y2="1.4790882505662353"></line><line stroke-width="0.4" stroke="#FFFFFF" x1="534.6732171478649" y1="216.6325180976359" x2="479.82940959338214" y2="439.91650558345606"></line><line stroke-width="0.4" stroke="#FFFFFF" x1="535.2175576967459" y1="219.4070450618543" x2="13.214740600308517" y2="353.4345884812357"></line><line stroke-width="0.4" stroke="#FFFFFF" x1="535.7328141516953" y1="222.18712011371244" x2="339.88114217768054" y2="9.20002690195156"></line><line stroke-width="0.4" stroke="#FFFFFF" x1="536.2189300090363" y1="224.97243838665233" x2="450.6652637168918" y2="470.64910287889643"></line><line stroke-width="0.4" stroke="#FFFFFF" x1="536.6758519606872" y1="227.7626944391376" x2="3.3241480393127745" y2="312.23730556086224"></line><line stroke-width="0.4" stroke="#FFFFFF" x1="537.1035299000068" y1="230.55758228814875" x2="379.818893630466" y2="23.342726436497742"></line><line stroke-width="0.4" stroke="#FFFFFF" x1="537.5019169272898" y1="233.35679544273782" x2="417.05253945405735" y2="496.44105334526444"></line><line stroke-width="0.4" stroke="#FFFFFF" x1="537.870969354909" y1="236.16002693763787" x2="0" y2="270.00000000000017"></line><line stroke-width="0.4" stroke="#FFFFFF" x1="538.2106467121071" y1="238.96696936692598" x2="417.0525394540573" y2="43.55894665473551"></line><line stroke-width="0.4" stroke="#FFFFFF" x1="538.5209117494337" y1="241.77731491773352" x2="379.8188936304661" y2="516.6572735635023"></line><line stroke-width="0.4" stroke="#FFFFFF" x1="538.8017304428316" y1="244.5907554040011" x2="3.3241480393127745" y2="227.76269443913782"></line><line stroke-width="0.4" stroke="#FFFFFF" x1="539.0530719973663" y1="247.4069823002748" x2="450.66526371689173" y2="69.35089712110354"></line><line stroke-width="0.4" stroke="#FFFFFF" x1="539.2749088506037" y1="250.22568677553943" x2="339.88114217768066" y2="530.7999730980484"></line><line stroke-width="0.4" stroke="#FFFFFF" x1="539.4672166756334" y1="253.0465597270853" x2="13.21474060030846" y2="186.56541151876434"></line><line stroke-width="0.4" stroke="#FFFFFF" x1="539.6299743837349" y1="255.86929181440507" x2="479.8294095933821" y2="100.08349441654383"></line><line stroke-width="0.4" stroke="#FFFFFF" x1="539.7631641266918" y1="258.69357349311605" x2="298.2226850822666" y2="538.5209117494337"></line><line stroke-width="0.4" stroke="#FFFFFF" x1="539.8667712987476" y1="261.51909504890534" x2="29.428238469140723" y2="147.4225650703223"></line><line stroke-width="0.4" stroke="#FFFFFF" x1="539.9407845382083" y1="264.3455466314936" x2="503.8268590217984" y2="134.99999999999994"></line><line stroke-width="0.4" stroke="#FFFFFF" x1="539.9851957286883" y1="267.17261828861365" x2="255.8692918144051" y2="539.6299743837349"></line><line stroke-width="0.4" stroke="#FFFFFF" x1="540" y1="270" x2="51.56541151876425" y2="111.2979818810322"></line><line stroke-width="0.4" stroke="#FFFFFF" x1="539.9851957286883" y1="272.8273817113863" x2="522.0667151542444" y2="173.24065362276892"></line><line stroke-width="0.4" stroke="#FFFFFF" x1="539.9407845382083" y1="275.6544533685064" x2="213.86384347920503" y2="534.0998521981276"></line><line stroke-width="0.4" stroke="#FFFFFF" x1="539.8667712987476" y1="278.4809049510946" x2="79.08116907963208" y2="79.08116907963228"></line><line stroke-width="0.4" stroke="#FFFFFF" x1="539.7631641266918" y1="281.3064265068838" x2="534.0998521981276" y2="213.86384347920495"></line><line stroke-width="0.4" stroke="#FFFFFF" x1="539.6299743837349" y1="284.1307081855948" x2="173.240653622769" y2="522.0667151542445"></line><line stroke-width="0.4" stroke="#FFFFFF" x1="539.4672166756334" y1="286.9534402729145" x2="111.29798188103223" y2="51.56541151876422"></line><line stroke-width="0.4" stroke="#FFFFFF" x1="539.2749088506037" y1="289.7743132244605" x2="539.6299743837349" y2="255.86929181440507"></line><line stroke-width="0.4" stroke="#FFFFFF" x1="539.0530719973663" y1="292.59301769972524" x2="135.00000000000006" y2="503.82685902179844"></line><line stroke-width="0.4" stroke="#FFFFFF" x1="538.8017304428316" y1="295.40924459599887" x2="147.4225650703221" y2="29.42823846914081"></line><line stroke-width="0.4" stroke="#FFFFFF" x1="538.5209117494337" y1="298.2226850822665" x2="538.5209117494337" y2="298.2226850822665"></line><line stroke-width="0.4" stroke="#FFFFFF" x1="538.2106467121071" y1="301.03303063307396" x2="100.08349441654394" y2="479.82940959338214"></line><line stroke-width="0.4" stroke="#FFFFFF" x1="537.870969354909" y1="303.8399730623621" x2="186.56541151876417" y2="13.214740600308573"></line><line stroke-width="0.4" stroke="#FFFFFF" x1="537.5019169272898" y1="306.64320455726215" x2="530.7999730980484" y2="339.88114217768054"></line><line stroke-width="0.4" stroke="#FFFFFF" x1="537.1035299000068" y1="309.4424177118511" x2="69.35089712110357" y2="450.6652637168918"></line><line stroke-width="0.4" stroke="#FFFFFF" x1="536.6758519606872" y1="312.23730556086224" x2="227.76269443913768" y2="3.3241480393127745"></line><line stroke-width="0.4" stroke="#FFFFFF" x1="536.2189300090363" y1="315.02756161334753" x2="516.6572735635023" y2="379.8188936304661"></line><line stroke-width="0.4" stroke="#FFFFFF" x1="535.7328141516953" y1="317.81287988628736" x2="43.558946654735536" y2="417.0525394540574"></line><line stroke-width="0.4" stroke="#FFFFFF" x1="535.2175576967459" y1="320.5929549381456" x2="269.99999999999994" y2="0"></line><line stroke-width="0.4" stroke="#FFFFFF" x1="534.6732171478649" y1="323.3674819023641" x2="496.44105334526455" y2="417.05253945405724"></line><line stroke-width="0.4" stroke="#FFFFFF" x1="534.0998521981276" y1="326.136156520795" x2="23.3427264364978" y2="379.8188936304661"></line><line stroke-width="0.4" stroke="#FFFFFF" x1="533.4975257234619" y1="328.8986751770665" x2="312.23730556086235" y2="3.3241480393127745"></line><line stroke-width="0.4" stroke="#FFFFFF" x1="532.8663037757533" y1="331.654734929877" x2="470.64910287889654" y2="450.6652637168917"></line><line stroke-width="0.4" stroke="#FFFFFF" x1="532.2062555756017" y1="334.40403354621674" x2="9.20002690195156" y2="339.88114217768066"></line><line stroke-width="0.4" stroke="#FFFFFF" x1="531.5174535047304" y1="337.1462695345108" x2="353.4345884812358" y2="13.214740600308517"></line><line stroke-width="0.4" stroke="#FFFFFF" x1="530.7999730980484" y1="339.88114217768054" x2="439.9165055834561" y2="479.82940959338214"></line><line stroke-width="0.4" stroke="#FFFFFF" x1="530.0538930353678" y1="342.6083515661217" x2="1.4790882505662353" y2="298.2226850822665"></line><line stroke-width="0.4" stroke="#FFFFFF" x1="529.2792951327747" y1="345.3275986305918" x2="392.5774349296777" y2="29.428238469140695"></line><line stroke-width="0.4" stroke="#FFFFFF" x1="528.4762643336583" y1="348.0385851750072" x2="405.0000000000001" y2="503.8268590217984"></line><line stroke-width="0.4" stroke="#FFFFFF" x1="527.6448886993948" y1="350.7410139091435" x2="0.3700256162650817" y2="255.86929181440524"></line><line stroke-width="0.4" stroke="#FFFFFF" x1="526.7852593996914" y1="353.4345884812358" x2="428.70201811896777" y2="51.56541151876419"></line><line stroke-width="0.4" stroke="#FFFFFF" x1="525.8974707025882" y1="356.11901351047885" x2="366.75934637723105" y2="522.0667151542444"></line><line stroke-width="0.4" stroke="#FFFFFF" x1="524.9816199641199" y1="358.7939946194175" x2="5.900147801872436" y2="213.86384347920506"></line><line stroke-width="0.4" stroke="#FFFFFF" x1="524.037807617641" y1="361.4592384662286" x2="460.91883092036784" y2="79.08116907963219"></line><line stroke-width="0.4" stroke="#FFFFFF" x1="523.0661371628107" y1="364.1144527768901" x2="326.1361565207951" y2="534.0998521981276"></line><line stroke-width="0.4" stroke="#FFFFFF" x1="522.0667151542445" y1="366.75934637723105" x2="17.93328484575551" y2="173.240653622769"></line><line stroke-width="0.4" stroke="#FFFFFF" x1="521.039651189828" y1="369.39362922486293" x2="488.4345884812358" y2="111.29798188103223"></line><line stroke-width="0.4" stroke="#FFFFFF" x1="519.9850578986986" y1="372.0170124409861" x2="284.1307081855949" y2="539.6299743837349"></line><line stroke-width="0.4" stroke="#FFFFFF" x1="518.9030509288951" y1="374.6292083420677" x2="36.17314097820153" y2="135.00000000000009"></line><line stroke-width="0.4" stroke="#FFFFFF" x1="517.793748934675" y1="377.2299304713906" x2="510.5717615308593" y2="147.42256507032232"></line><line stroke-width="0.4" stroke="#FFFFFF" x1="516.6572735635023" y1="379.8188936304661" x2="241.77731491773366" y2="538.5209117494338"></line><line stroke-width="0.4" stroke="#FFFFFF" x1="515.4937494427085" y1="382.3958139103083" x2="60.170590406617805" y2="100.08349441654394"></line><line stroke-width="0.4" stroke="#FFFFFF" x1="514.3033041658254" y1="384.9604087225695" x2="526.7852593996914" y2="186.56541151876414"></line><line stroke-width="0.4" stroke="#FFFFFF" x1="513.0860682785923" y1="387.5123968305284" x2="200.11885782231937" y2="530.7999730980484"></line><line stroke-width="0.4" stroke="#FFFFFF" x1="511.8421752646415" y1="390.05149837993036" x2="89.33473628310821" y2="69.35089712110363"></line><line stroke-width="0.4" stroke="#FFFFFF" x1="510.57176153085936" y1="392.5774349296776" x2="536.6758519606872" y2="227.7626944391376"></line><line stroke-width="0.4" stroke="#FFFFFF" x1="509.27496639242804" y1="395.0899294823626" x2="160.18110636953395" y2="516.6572735635023"></line><line stroke-width="0.4" stroke="#FFFFFF" x1="507.95193205754794" y1="397.58870651464446" x2="122.9474605459427" y2="43.55894665473551"></line><line stroke-width="0.4" stroke="#FFFFFF" x1="506.6028036118432" y1="400.0734920074631" x2="540" y2="270"></line><line stroke-width="0.4" stroke="#FFFFFF" x1="505.22772900245116" y1="402.5440134760879" x2="122.94746054594268" y2="496.4410533452645"></line><line stroke-width="0.4" stroke="#FFFFFF" x1="503.82685902179844" y1="404.99999999999994" x2="160.18110636953395" y2="23.34272643649777"></line><line stroke-width="0.4" stroke="#FFFFFF" x1="502.4003472910648" y1="407.44118225260024" x2="536.6758519606872" y2="312.23730556086224"></line><line stroke-width="0.4" stroke="#FFFFFF" x1="500.9483502433368" y1="409.8672925307451" x2="89.33473628310847" y2="470.6491028788966"></line><line stroke-width="0.4" stroke="#FFFFFF" x1="499.4710271064532" y1="412.278064784103" x2="200.11885782231937" y2="9.20002690195156"></line><line stroke-width="0.4" stroke="#FFFFFF" x1="497.9685398855441" y1="414.67323464432906" x2="526.7852593996914" y2="353.4345884812358"></line><line stroke-width="0.4" stroke="#FFFFFF" x1="496.44105334526455" y1="417.05253945405724" x2="60.170590406618004" y2="439.9165055834563"></line><line stroke-width="0.4" stroke="#FFFFFF" x1="494.8887349917269" y1="419.41571829570285" x2="241.77731491773355" y2="1.4790882505662353"></line><line stroke-width="0.4" stroke="#FFFFFF" x1="493.3117550541317" y1="421.7625120200752" x2="510.57176153085936" y2="392.5774349296776"></line><line stroke-width="0.4" stroke="#FFFFFF" x1="491.7102864661001" y1="424.09266327479656" x2="36.17314097820156" y2="405"></line><line stroke-width="0.4" stroke="#FFFFFF" x1="490.0845048467097" y1="426.40591653252324" x2="284.1307081855948" y2="0.3700256162650817"></line><line stroke-width="0.4" stroke="#FFFFFF" x1="488.4345884812359" y1="428.70201811896766" x2="488.4345884812359" y2="428.70201811896766"></line><line stroke-width="0.4" stroke="#FFFFFF" x1="486.76071830160083" y1="430.98071624071633" x2="17.933284845755537" y2="366.75934637723105"></line><line stroke-width="0.4" stroke="#FFFFFF" x1="485.063077866533" y1="433.2417610128412" x2="326.136156520795" y2="5.900147801872436"></line><line stroke-width="0.4" stroke="#FFFFFF" x1="483.34185334143643" y1="435.48490448630366" x2="460.91883092036784" y2="460.9188309203678"></line><line stroke-width="0.4" stroke="#FFFFFF" x1="481.5972334779767" y1="437.7099006751438" x2="5.900147801872436" y2="326.136156520795"></line><line stroke-width="0.4" stroke="#FFFFFF" x1="479.82940959338214" y1="439.91650558345606" x2="366.75934637723105" y2="17.933284845755537"></line><line stroke-width="0.4" stroke="#FFFFFF" x1="478.0385755494632" y1="442.1044772321461" x2="428.7020181189678" y2="488.4345884812357"></line><line stroke-width="0.4" stroke="#FFFFFF" x1="476.22492773135343" y1="444.2735756854666" x2="0.3700256162650817" y2="284.13070818559504"></line><line stroke-width="0.4" stroke="#FFFFFF" x1="474.3886650259743" y1="446.42356307732837" x2="405" y2="36.17314097820156"></line><line stroke-width="0.4" stroke="#FFFFFF" x1="472.5299888002241" y1="448.55420363738597" x2="392.5774349296777" y2="510.5717615308593"></line><line stroke-width="0.4" stroke="#FFFFFF" x1="470.64910287889654" y1="450.6652637168917" x2="1.4790882505661784" y2="241.7773149177338"></line><line stroke-width="0.4" stroke="#FFFFFF" x1="468.7462135223284" y1="452.7565118143183" x2="439.9165055834561" y2="60.17059040661786"></line><line stroke-width="0.4" stroke="#FFFFFF" x1="466.8215294037811" y1="454.8277186007459" x2="353.4345884812358" y2="526.7852593996914"></line><line stroke-width="0.4" stroke="#FFFFFF" x1="464.8752615865578" y1="456.8786569450098" x2="9.20002690195156" y2="200.1188578223194"></line><line stroke-width="0.4" stroke="#FFFFFF" x1="462.90762350085697" y1="458.9091019386086" x2="470.64910287889643" y2="89.33473628310827"></line><line stroke-width="0.4" stroke="#FFFFFF" x1="460.91883092036784" y1="460.9188309203678" x2="312.23730556086247" y2="536.6758519606872"></line><line stroke-width="0.4" stroke="#FFFFFF" x1="458.9091019386087" y1="462.90762350085686" x2="23.34272643649777" y2="160.18110636953395"></line><line stroke-width="0.4" stroke="#FFFFFF" x1="456.8786569450098" y1="464.87526158655777" x2="496.44105334526444" y2="122.94746054594265"></line><line stroke-width="0.4" stroke="#FFFFFF" x1="454.827718600746" y1="466.8215294037811" x2="270" y2="540"></line><line stroke-width="0.4" stroke="#FFFFFF" x1="452.7565118143185" y1="468.74621352232816" x2="43.55894665473551" y2="122.94746054594268"></line><line stroke-width="0.4" stroke="#FFFFFF" x1="450.6652637168918" y1="470.64910287889643" x2="516.6572735635023" y2="160.1811063695339"></line><line stroke-width="0.4" stroke="#FFFFFF" x1="448.5542036373861" y1="472.52998880022403" x2="227.76269443913782" y2="536.6758519606872"></line><line stroke-width="0.4" stroke="#FFFFFF" x1="446.4235630773285" y1="474.3886650259742" x2="69.3508971211034" y2="89.33473628310847"></line><line stroke-width="0.4" stroke="#FFFFFF" x1="444.27357568546665" y1="476.22492773135343" x2="530.7999730980484" y2="200.11885782231928"></line><line stroke-width="0.4" stroke="#FFFFFF" x1="442.1044772321462" y1="478.0385755494631" x2="186.56541151876434" y2="526.7852593996915"></line><line stroke-width="0.4" stroke="#FFFFFF" x1="439.9165055834561" y1="479.82940959338214" x2="100.08349441654377" y2="60.17059040661795"></line><line stroke-width="0.4" stroke="#FFFFFF" x1="437.7099006751438" y1="481.5972334779767" x2="538.5209117494337" y2="241.77731491773352"></line><line stroke-width="0.4" stroke="#FFFFFF" x1="435.4849044863037" y1="483.3418533414364" x2="147.42256507032226" y2="510.57176153085925"></line><line stroke-width="0.4" stroke="#FFFFFF" x1="433.24176101284127" y1="485.063077866533" x2="135.0000000000001" y2="36.17314097820153"></line><line stroke-width="0.4" stroke="#FFFFFF" x1="430.98071624071633" y1="486.76071830160083" x2="539.6299743837349" y2="284.1307081855948"></line><line stroke-width="0.4" stroke="#FFFFFF" x1="428.7020181189678" y1="488.4345884812357" x2="111.2979818810322" y2="488.4345884812358"></line><line stroke-width="0.4" stroke="#FFFFFF" x1="426.40591653252335" y1="490.0845048467096" x2="173.24065362276895" y2="17.933284845755537"></line><line stroke-width="0.4" stroke="#FFFFFF" x1="424.0926632747967" y1="491.7102864661" x2="534.0998521981276" y2="326.136156520795"></line><line stroke-width="0.4" stroke="#FFFFFF" x1="421.7625120200753" y1="493.31175505413165" x2="79.08116907963228" y2="460.9188309203679"></line><line stroke-width="0.4" stroke="#FFFFFF" x1="419.4157182957029" y1="494.8887349917269" x2="213.86384347920497" y2="5.900147801872436"></line><line stroke-width="0.4" stroke="#FFFFFF" x1="417.05253945405735" y1="496.44105334526444" x2="522.0667151542445" y2="366.75934637723105"></line><line stroke-width="0.4" stroke="#FFFFFF" x1="414.67323464432906" y1="497.96853988554403" x2="51.56541151876428" y2="428.7020181189679"></line><line stroke-width="0.4" stroke="#FFFFFF" x1="412.278064784103" y1="499.4710271064532" x2="255.8692918144051" y2="0.3700256162650817"></line><line stroke-width="0.4" stroke="#FFFFFF" x1="409.8672925307452" y1="500.9483502433368" x2="503.82685902179844" y2="404.99999999999994"></line><line stroke-width="0.4" stroke="#FFFFFF" x1="407.4411822526003" y1="502.40034729106475" x2="29.42823846914075" y2="392.5774349296778"></line><line stroke-width="0.4" stroke="#FFFFFF" x1="405.0000000000001" y1="503.8268590217984" x2="298.2226850822664" y2="1.4790882505662353"></line><line stroke-width="0.4" stroke="#FFFFFF" x1="402.544013476088" y1="505.22772900245116" x2="479.82940959338214" y2="439.91650558345606"></line><line stroke-width="0.4" stroke="#FFFFFF" x1="400.0734920074632" y1="506.6028036118431" x2="13.214740600308517" y2="353.4345884812357"></line><line stroke-width="0.4" stroke="#FFFFFF" x1="397.5887065146447" y1="507.9519320575478" x2="339.88114217768054" y2="9.20002690195156"></line><line stroke-width="0.4" stroke="#FFFFFF" x1="395.08992948236266" y1="509.274966392428" x2="450.6652637168918" y2="470.64910287889643"></line><line stroke-width="0.4" stroke="#FFFFFF" x1="392.5774349296777" y1="510.5717615308593" x2="3.3241480393127745" y2="312.23730556086224"></line><line stroke-width="0.4" stroke="#FFFFFF" x1="390.0514983799305" y1="511.84217526464147" x2="379.818893630466" y2="23.342726436497742"></line><line stroke-width="0.4" stroke="#FFFFFF" x1="387.5123968305284" y1="513.0860682785923" x2="417.05253945405735" y2="496.44105334526444"></line><line stroke-width="0.4" stroke="#FFFFFF" x1="384.9604087225697" y1="514.3033041658252" x2="0" y2="270.00000000000017"></line><line stroke-width="0.4" stroke="#FFFFFF" x1="382.39581391030833" y1="515.4937494427085" x2="417.0525394540573" y2="43.55894665473551"></line><line stroke-width="0.4" stroke="#FFFFFF" x1="379.8188936304661" y1="516.6572735635023" x2="379.8188936304661" y2="516.6572735635023"></line><line stroke-width="0.4" stroke="#FFFFFF" x1="377.22993047139084" y1="517.7937489346749" x2="3.3241480393127745" y2="227.76269443913782"></line><line stroke-width="0.4" stroke="#FFFFFF" x1="374.62920834206784" y1="518.9030509288951" x2="450.66526371689173" y2="69.35089712110354"></line><line stroke-width="0.4" stroke="#FFFFFF" x1="372.0170124409862" y1="519.9850578986985" x2="339.88114217768066" y2="530.7999730980484"></line><line stroke-width="0.4" stroke="#FFFFFF" x1="369.39362922486316" y1="521.0396511898279" x2="13.21474060030846" y2="186.56541151876434"></line><line stroke-width="0.4" stroke="#FFFFFF" x1="366.75934637723105" y1="522.0667151542444" x2="479.8294095933821" y2="100.08349441654383"></line><line stroke-width="0.4" stroke="#FFFFFF" x1="364.1144527768901" y1="523.0661371628107" x2="298.2226850822666" y2="538.5209117494337"></line><line stroke-width="0.4" stroke="#FFFFFF" x1="361.4592384662287" y1="524.0378076176409" x2="29.428238469140723" y2="147.4225650703223"></line><line stroke-width="0.4" stroke="#FFFFFF" x1="358.7939946194175" y1="524.9816199641199" x2="503.8268590217984" y2="134.99999999999994"></line><line stroke-width="0.4" stroke="#FFFFFF" x1="356.11901351047896" y1="525.8974707025881" x2="255.8692918144051" y2="539.6299743837349"></line><line stroke-width="0.4" stroke="#FFFFFF" x1="353.4345884812358" y1="526.7852593996914" x2="51.56541151876425" y2="111.2979818810322"></line><line stroke-width="0.4" stroke="#FFFFFF" x1="350.7410139091435" y1="527.6448886993948" x2="522.0667151542444" y2="173.24065362276892"></line><line stroke-width="0.4" stroke="#FFFFFF" x1="348.0385851750074" y1="528.4762643336582" x2="213.86384347920503" y2="534.0998521981276"></line><line stroke-width="0.4" stroke="#FFFFFF" x1="345.327598630592" y1="529.2792951327747" x2="79.08116907963208" y2="79.08116907963228"></line><line stroke-width="0.4" stroke="#FFFFFF" x1="342.6083515661219" y1="530.0538930353677" x2="534.0998521981276" y2="213.86384347920495"></line><line stroke-width="0.4" stroke="#FFFFFF" x1="339.88114217768066" y1="530.7999730980484" x2="173.240653622769" y2="522.0667151542445"></line><line stroke-width="0.4" stroke="#FFFFFF" x1="337.1462695345108" y1="531.5174535047304" x2="111.29798188103223" y2="51.56541151876422"></line><line stroke-width="0.4" stroke="#FFFFFF" x1="334.40403354621685" y1="532.2062555756017" x2="539.6299743837349" y2="255.86929181440507"></line><line stroke-width="0.4" stroke="#FFFFFF" x1="331.654734929877" y1="532.8663037757533" x2="135.00000000000006" y2="503.82685902179844"></line><line stroke-width="0.4" stroke="#FFFFFF" x1="328.89867517706654" y1="533.4975257234618" x2="147.4225650703221" y2="29.42823846914081"></line><line stroke-width="0.4" stroke="#FFFFFF" x1="326.1361565207951" y1="534.0998521981276" x2="538.5209117494337" y2="298.2226850822665"></line><line stroke-width="0.4" stroke="#FFFFFF" x1="323.3674819023641" y1="534.6732171478649" x2="100.08349441654394" y2="479.82940959338214"></line><line stroke-width="0.4" stroke="#FFFFFF" x1="320.59295493814574" y1="535.2175576967459" x2="186.56541151876417" y2="13.214740600308573"></line><line stroke-width="0.4" stroke="#FFFFFF" x1="317.81287988628765" y1="535.7328141516953" x2="530.7999730980484" y2="339.88114217768054"></line><line stroke-width="0.4" stroke="#FFFFFF" x1="315.0275616133477" y1="536.2189300090363" x2="69.35089712110357" y2="450.6652637168918"></line><line stroke-width="0.4" stroke="#FFFFFF" x1="312.23730556086247" y1="536.6758519606872" x2="227.76269443913768" y2="3.3241480393127745"></line><line stroke-width="0.4" stroke="#FFFFFF" x1="309.4424177118512" y1="537.1035299000068" x2="516.6572735635023" y2="379.8188936304661"></line><line stroke-width="0.4" stroke="#FFFFFF" x1="306.6432045572622" y1="537.5019169272898" x2="43.558946654735536" y2="417.0525394540574"></line><line stroke-width="0.4" stroke="#FFFFFF" x1="303.83997306236233" y1="537.870969354909" x2="269.99999999999994" y2="0"></line><line stroke-width="0.4" stroke="#FFFFFF" x1="301.03303063307396" y1="538.2106467121071" x2="496.44105334526455" y2="417.05253945405724"></line><line stroke-width="0.4" stroke="#FFFFFF" x1="298.2226850822666" y1="538.5209117494337" x2="23.3427264364978" y2="379.8188936304661"></line><line stroke-width="0.4" stroke="#FFFFFF" x1="295.409244595999" y1="538.8017304428316" x2="312.23730556086235" y2="3.3241480393127745"></line><line stroke-width="0.4" stroke="#FFFFFF" x1="292.5930176997251" y1="539.0530719973663" x2="470.64910287889654" y2="450.6652637168917"></line><line stroke-width="0.4" stroke="#FFFFFF" x1="289.7743132244607" y1="539.2749088506037" x2="9.20002690195156" y2="339.88114217768066"></line><line stroke-width="0.4" stroke="#FFFFFF" x1="286.95344027291463" y1="539.4672166756334" x2="353.4345884812358" y2="13.214740600308517"></line><line stroke-width="0.4" stroke="#FFFFFF" x1="284.1307081855949" y1="539.6299743837349" x2="439.9165055834561" y2="479.82940959338214"></line><line stroke-width="0.4" stroke="#FFFFFF" x1="281.30642650688395" y1="539.7631641266918" x2="1.4790882505662353" y2="298.2226850822665"></line><line stroke-width="0.4" stroke="#FFFFFF" x1="278.4809049510947" y1="539.8667712987476" x2="392.5774349296777" y2="29.428238469140695"></line><line stroke-width="0.4" stroke="#FFFFFF" x1="275.6544533685064" y1="539.9407845382083" x2="405.0000000000001" y2="503.8268590217984"></line><line stroke-width="0.4" stroke="#FFFFFF" x1="272.82738171138647" y1="539.9851957286883" x2="0.3700256162650817" y2="255.86929181440524"></line><line stroke-width="0.4" stroke="#FFFFFF" x1="270" y1="540" x2="428.70201811896777" y2="51.56541151876419"></line><line stroke-width="0.4" stroke="#FFFFFF" x1="267.1726182886138" y1="539.9851957286883" x2="366.75934637723105" y2="522.0667151542444"></line><line stroke-width="0.4" stroke="#FFFFFF" x1="264.3455466314936" y1="539.9407845382083" x2="5.900147801872436" y2="213.86384347920506"></line><line stroke-width="0.4" stroke="#FFFFFF" x1="261.5190950489053" y1="539.8667712987476" x2="460.91883092036784" y2="79.08116907963219"></line><line stroke-width="0.4" stroke="#FFFFFF" x1="258.6935734931162" y1="539.7631641266918" x2="326.1361565207951" y2="534.0998521981276"></line><line stroke-width="0.4" stroke="#FFFFFF" x1="255.8692918144051" y1="539.6299743837349" x2="17.93328484575551" y2="173.240653622769"></line><line stroke-width="0.4" stroke="#FFFFFF" x1="253.0465597270855" y1="539.4672166756334" x2="488.4345884812358" y2="111.29798188103223"></line><line stroke-width="0.4" stroke="#FFFFFF" x1="250.2256867755395" y1="539.2749088506037" x2="284.1307081855949" y2="539.6299743837349"></line><line stroke-width="0.4" stroke="#FFFFFF" x1="247.40698230027493" y1="539.0530719973663" x2="36.17314097820153" y2="135.00000000000009"></line><line stroke-width="0.4" stroke="#FFFFFF" x1="244.5907554040012" y1="538.8017304428316" x2="510.5717615308593" y2="147.42256507032232"></line><line stroke-width="0.4" stroke="#FFFFFF" x1="241.77731491773366" y1="538.5209117494338" x2="241.77731491773366" y2="538.5209117494338"></line><line stroke-width="0.4" stroke="#FFFFFF" x1="238.96696936692604" y1="538.2106467121071" x2="60.170590406617805" y2="100.08349441654394"></line><line stroke-width="0.4" stroke="#FFFFFF" x1="236.16002693763807" y1="537.870969354909" x2="526.7852593996914" y2="186.56541151876414"></line><line stroke-width="0.4" stroke="#FFFFFF" x1="233.35679544273785" y1="537.5019169272898" x2="200.11885782231937" y2="530.7999730980484"></line><line stroke-width="0.4" stroke="#FFFFFF" x1="230.5575822881488" y1="537.1035299000068" x2="89.33473628310821" y2="69.35089712110363"></line><line stroke-width="0.4" stroke="#FFFFFF" x1="227.76269443913782" y1="536.6758519606872" x2="536.6758519606872" y2="227.7626944391376"></line><line stroke-width="0.4" stroke="#FFFFFF" x1="224.97243838665233" y1="536.2189300090363" x2="160.18110636953395" y2="516.6572735635023"></line><line stroke-width="0.4" stroke="#FFFFFF" x1="222.18712011371264" y1="535.7328141516953" x2="122.9474605459427" y2="43.55894665473551"></line><line stroke-width="0.4" stroke="#FFFFFF" x1="219.40704506185443" y1="535.2175576967459" x2="540" y2="270"></line><line stroke-width="0.4" stroke="#FFFFFF" x1="216.63251809763605" y1="534.673217147865" x2="122.94746054594268" y2="496.4410533452645"></line><line stroke-width="0.4" stroke="#FFFFFF" x1="213.86384347920503" y1="534.0998521981276" x2="160.18110636953395" y2="23.34272643649777"></line><line stroke-width="0.4" stroke="#FFFFFF" x1="211.10132482293363" y1="533.4975257234619" x2="536.6758519606872" y2="312.23730556086224"></line><line stroke-width="0.4" stroke="#FFFFFF" x1="208.345265070123" y1="532.8663037757533" x2="89.33473628310847" y2="470.6491028788966"></line><line stroke-width="0.4" stroke="#FFFFFF" x1="205.59596645378315" y1="532.2062555756017" x2="200.11885782231937" y2="9.20002690195156"></line><line stroke-width="0.4" stroke="#FFFFFF" x1="202.85373046548926" y1="531.5174535047304" x2="526.7852593996914" y2="353.4345884812358"></line><line stroke-width="0.4" stroke="#FFFFFF" x1="200.11885782231937" y1="530.7999730980484" x2="60.170590406618004" y2="439.9165055834563"></line><line stroke-width="0.4" stroke="#FFFFFF" x1="197.3916484338783" y1="530.0538930353678" x2="241.77731491773355" y2="1.4790882505662353"></line><line stroke-width="0.4" stroke="#FFFFFF" x1="194.67240136940808" y1="529.2792951327747" x2="510.57176153085936" y2="392.5774349296776"></line><line stroke-width="0.4" stroke="#FFFFFF" x1="191.9614148249928" y1="528.4762643336583" x2="36.17314097820156" y2="405"></line><line stroke-width="0.4" stroke="#FFFFFF" x1="189.25898609085655" y1="527.6448886993948" x2="284.1307081855948" y2="0.3700256162650817"></line><line stroke-width="0.4" stroke="#FFFFFF" x1="186.56541151876434" y1="526.7852593996915" x2="488.4345884812359" y2="428.70201811896766"></line><line stroke-width="0.4" stroke="#FFFFFF" x1="183.88098648952118" y1="525.8974707025882" x2="17.933284845755537" y2="366.75934637723105"></line><line stroke-width="0.4" stroke="#FFFFFF" x1="181.20600538058267" y1="524.98161996412" x2="326.136156520795" y2="5.900147801872436"></line><line stroke-width="0.4" stroke="#FFFFFF" x1="178.5407615337714" y1="524.037807617641" x2="460.91883092036784" y2="460.9188309203678"></line><line stroke-width="0.4" stroke="#FFFFFF" x1="175.88554722310988" y1="523.0661371628107" x2="5.900147801872436" y2="326.136156520795"></line><line stroke-width="0.4" stroke="#FFFFFF" x1="173.240653622769" y1="522.0667151542445" x2="366.75934637723105" y2="17.933284845755537"></line><line stroke-width="0.4" stroke="#FFFFFF" x1="170.60637077513695" y1="521.039651189828" x2="428.7020181189678" y2="488.4345884812357"></line><line stroke-width="0.4" stroke="#FFFFFF" x1="167.9829875590139" y1="519.9850578986986" x2="0.3700256162650817" y2="284.13070818559504"></line><line stroke-width="0.4" stroke="#FFFFFF" x1="165.3707916579322" y1="518.9030509288951" x2="405" y2="36.17314097820156"></line><line stroke-width="0.4" stroke="#FFFFFF" x1="162.77006952860938" y1="517.793748934675" x2="392.5774349296777" y2="510.5717615308593"></line><line stroke-width="0.4" stroke="#FFFFFF" x1="160.18110636953395" y1="516.6572735635023" x2="1.4790882505661784" y2="241.7773149177338"></line><line stroke-width="0.4" stroke="#FFFFFF" x1="157.60418608969184" y1="515.4937494427086" x2="439.9165055834561" y2="60.17059040661786"></line><line stroke-width="0.4" stroke="#FFFFFF" x1="155.03959127743047" y1="514.3033041658254" x2="353.4345884812358" y2="526.7852593996914"></line><line stroke-width="0.4" stroke="#FFFFFF" x1="152.4876031694718" y1="513.0860682785924" x2="9.20002690195156" y2="200.1188578223194"></line><line stroke-width="0.4" stroke="#FFFFFF" x1="149.94850162006952" y1="511.84217526464147" x2="470.64910287889643" y2="89.33473628310827"></line><line stroke-width="0.4" stroke="#FFFFFF" x1="147.42256507032226" y1="510.57176153085925" x2="312.23730556086247" y2="536.6758519606872"></line><line stroke-width="0.4" stroke="#FFFFFF" x1="144.9100705176374" y1="509.27496639242804" x2="23.34272643649777" y2="160.18110636953395"></line><line stroke-width="0.4" stroke="#FFFFFF" x1="142.41129348535543" y1="507.9519320575479" x2="496.44105334526444" y2="122.94746054594265"></line><line stroke-width="0.4" stroke="#FFFFFF" x1="139.92650799253704" y1="506.6028036118432" x2="270" y2="540"></line><line stroke-width="0.4" stroke="#FFFFFF" x1="137.4559865239121" y1="505.2277290024512" x2="43.55894665473551" y2="122.94746054594268"></line><line stroke-width="0.4" stroke="#FFFFFF" x1="135.00000000000006" y1="503.82685902179844" x2="516.6572735635023" y2="160.1811063695339"></line><line stroke-width="0.4" stroke="#FFFFFF" x1="132.55881774739976" y1="502.4003472910648" x2="227.76269443913782" y2="536.6758519606872"></line><line stroke-width="0.4" stroke="#FFFFFF" x1="130.132707469255" y1="500.9483502433369" x2="69.3508971211034" y2="89.33473628310847"></line><line stroke-width="0.4" stroke="#FFFFFF" x1="127.72193521589713" y1="499.47102710645333" x2="530.7999730980484" y2="200.11885782231928"></line><line stroke-width="0.4" stroke="#FFFFFF" x1="125.32676535567097" y1="497.9685398855441" x2="186.56541151876434" y2="526.7852593996915"></line><line stroke-width="0.4" stroke="#FFFFFF" x1="122.94746054594268" y1="496.4410533452645" x2="100.08349441654377" y2="60.17059040661795"></line><line stroke-width="0.4" stroke="#FFFFFF" x1="120.58428170429704" y1="494.8887349917268" x2="538.5209117494337" y2="241.77731491773352"></line><line stroke-width="0.4" stroke="#FFFFFF" x1="118.2374879799248" y1="493.31175505413177" x2="147.42256507032226" y2="510.57176153085925"></line><line stroke-width="0.4" stroke="#FFFFFF" x1="115.90733672520346" y1="491.7102864661001" x2="135.0000000000001" y2="36.17314097820153"></line><line stroke-width="0.4" stroke="#FFFFFF" x1="113.5940834674769" y1="490.08450484670976" x2="539.6299743837349" y2="284.1307081855948"></line><line stroke-width="0.4" stroke="#FFFFFF" x1="111.2979818810322" y1="488.4345884812358" x2="111.2979818810322" y2="488.4345884812358"></line><line stroke-width="0.4" stroke="#FFFFFF" x1="109.01928375928378" y1="486.76071830160095" x2="173.24065362276895" y2="17.933284845755537"></line><line stroke-width="0.4" stroke="#FFFFFF" x1="106.75823898715879" y1="485.06307786653304" x2="534.0998521981276" y2="326.136156520795"></line><line stroke-width="0.4" stroke="#FFFFFF" x1="104.51509551369651" y1="483.3418533414365" x2="79.08116907963228" y2="460.9188309203679"></line><line stroke-width="0.4" stroke="#FFFFFF" x1="102.2900993248563" y1="481.59723347797683" x2="213.86384347920497" y2="5.900147801872436"></line><line stroke-width="0.4" stroke="#FFFFFF" x1="100.08349441654394" y1="479.82940959338214" x2="522.0667151542445" y2="366.75934637723105"></line><line stroke-width="0.4" stroke="#FFFFFF" x1="97.89552276785378" y1="478.0385755494631" x2="51.56541151876428" y2="428.7020181189679"></line><line stroke-width="0.4" stroke="#FFFFFF" x1="95.72642431453329" y1="476.2249277313533" x2="255.8692918144051" y2="0.3700256162650817"></line><line stroke-width="0.4" stroke="#FFFFFF" x1="93.5764369226716" y1="474.3886650259743" x2="503.82685902179844" y2="404.99999999999994"></line><line stroke-width="0.4" stroke="#FFFFFF" x1="91.44579636261403" y1="472.5299888002241" x2="29.42823846914075" y2="392.5774349296778"></line><line stroke-width="0.4" stroke="#FFFFFF" x1="89.33473628310847" y1="470.6491028788966" x2="298.2226850822664" y2="1.4790882505662353"></line><line stroke-width="0.4" stroke="#FFFFFF" x1="87.24348818568154" y1="468.7462135223282" x2="479.82940959338214" y2="439.91650558345606"></line><line stroke-width="0.4" stroke="#FFFFFF" x1="85.17228139925413" y1="466.82152940378114" x2="13.214740600308517" y2="353.4345884812357"></line><line stroke-width="0.4" stroke="#FFFFFF" x1="83.1213430549902" y1="464.8752615865578" x2="339.88114217768054" y2="9.20002690195156"></line><line stroke-width="0.4" stroke="#FFFFFF" x1="81.09089806139147" y1="462.9076235008571" x2="450.6652637168918" y2="470.64910287889643"></line><line stroke-width="0.4" stroke="#FFFFFF" x1="79.08116907963228" y1="460.9188309203679" x2="3.3241480393127745" y2="312.23730556086224"></line><line stroke-width="0.4" stroke="#FFFFFF" x1="77.09237649914314" y1="458.9091019386087" x2="379.818893630466" y2="23.342726436497742"></line><line stroke-width="0.4" stroke="#FFFFFF" x1="75.12473841344223" y1="456.8786569450098" x2="417.05253945405735" y2="496.44105334526444"></line><line stroke-width="0.4" stroke="#FFFFFF" x1="73.17847059621886" y1="454.8277186007459" x2="0" y2="270.00000000000017"></line><line stroke-width="0.4" stroke="#FFFFFF" x1="71.25378647767184" y1="452.7565118143185" x2="417.0525394540573" y2="43.55894665473551"></line><line stroke-width="0.4" stroke="#FFFFFF" x1="69.35089712110357" y1="450.6652637168918" x2="379.8188936304661" y2="516.6572735635023"></line><line stroke-width="0.4" stroke="#FFFFFF" x1="67.47001119977594" y1="448.55420363738597" x2="3.3241480393127745" y2="227.76269443913782"></line><line stroke-width="0.4" stroke="#FFFFFF" x1="65.61133497402571" y1="446.4235630773284" x2="450.66526371689173" y2="69.35089712110354"></line><line stroke-width="0.4" stroke="#FFFFFF" x1="63.77507226864668" y1="444.27357568546677" x2="339.88114217768066" y2="530.7999730980484"></line><line stroke-width="0.4" stroke="#FFFFFF" x1="61.961424450536924" y1="442.1044772321462" x2="13.21474060030846" y2="186.56541151876434"></line><line stroke-width="0.4" stroke="#FFFFFF" x1="60.170590406618004" y1="439.9165055834563" x2="479.8294095933821" y2="100.08349441654383"></line><line stroke-width="0.4" stroke="#FFFFFF" x1="58.40276652202337" y1="437.7099006751439" x2="298.2226850822666" y2="538.5209117494337"></line><line stroke-width="0.4" stroke="#FFFFFF" x1="56.65814665856354" y1="435.48490448630355" x2="29.428238469140723" y2="147.4225650703223"></line><line stroke-width="0.4" stroke="#FFFFFF" x1="54.93692213346705" y1="433.24176101284127" x2="503.8268590217984" y2="134.99999999999994"></line><line stroke-width="0.4" stroke="#FFFFFF" x1="53.239281698399054" y1="430.9807162407162" x2="255.8692918144051" y2="539.6299743837349"></line><line stroke-width="0.4" stroke="#FFFFFF" x1="51.56541151876428" y1="428.7020181189679" x2="51.56541151876425" y2="111.2979818810322"></line><line stroke-width="0.4" stroke="#FFFFFF" x1="49.91549515329041" y1="426.40591653252335" x2="522.0667151542444" y2="173.24065362276892"></line><line stroke-width="0.4" stroke="#FFFFFF" x1="48.28971353389991" y1="424.09266327479656" x2="213.86384347920503" y2="534.0998521981276"></line><line stroke-width="0.4" stroke="#FFFFFF" x1="46.68824494586826" y1="421.76251202007523" x2="79.08116907963208" y2="79.08116907963228"></line><line stroke-width="0.4" stroke="#FFFFFF" x1="45.11126500827322" y1="419.41571829570296" x2="534.0998521981276" y2="213.86384347920495"></line><line stroke-width="0.4" stroke="#FFFFFF" x1="43.558946654735536" y1="417.0525394540574" x2="173.240653622769" y2="522.0667151542445"></line><line stroke-width="0.4" stroke="#FFFFFF" x1="42.03146011445605" y1="414.6732346443293" x2="111.29798188103223" y2="51.56541151876422"></line><line stroke-width="0.4" stroke="#FFFFFF" x1="40.528972893546836" y1="412.2780647841031" x2="539.6299743837349" y2="255.86929181440507"></line><line stroke-width="0.4" stroke="#FFFFFF" x1="39.05164975666315" y1="409.8672925307451" x2="135.00000000000006" y2="503.82685902179844"></line><line stroke-width="0.4" stroke="#FFFFFF" x1="37.59965270893525" y1="407.4411822526003" x2="147.4225650703221" y2="29.42823846914081"></line><line stroke-width="0.4" stroke="#FFFFFF" x1="36.17314097820156" y1="405" x2="538.5209117494337" y2="298.2226850822665"></line><line stroke-width="0.4" stroke="#FFFFFF" x1="34.77227099754893" y1="402.54401347608814" x2="100.08349441654394" y2="479.82940959338214"></line><line stroke-width="0.4" stroke="#FFFFFF" x1="33.39719638815686" y1="400.0734920074632" x2="186.56541151876417" y2="13.214740600308573"></line><line stroke-width="0.4" stroke="#FFFFFF" x1="32.04806794245212" y1="397.5887065146446" x2="530.7999730980484" y2="339.88114217768054"></line><line stroke-width="0.4" stroke="#FFFFFF" x1="30.725033607572016" y1="395.08992948236266" x2="69.35089712110357" y2="450.6652637168918"></line><line stroke-width="0.4" stroke="#FFFFFF" x1="29.42823846914075" y1="392.5774349296778" x2="227.76269443913768" y2="3.3241480393127745"></line><line stroke-width="0.4" stroke="#FFFFFF" x1="28.157824735358588" y1="390.05149837993054" x2="516.6572735635023" y2="379.8188936304661"></line><line stroke-width="0.4" stroke="#FFFFFF" x1="26.913931721407863" y1="387.5123968305287" x2="43.558946654735536" y2="417.0525394540574"></line><line stroke-width="0.4" stroke="#FFFFFF" x1="25.696695834174704" y1="384.9604087225696" x2="269.99999999999994" y2="0"></line><line stroke-width="0.4" stroke="#FFFFFF" x1="24.506250557291423" y1="382.3958139103082" x2="496.44105334526455" y2="417.05253945405724"></line><line stroke-width="0.4" stroke="#FFFFFF" x1="23.3427264364978" y1="379.8188936304661" x2="23.3427264364978" y2="379.8188936304661"></line><line stroke-width="0.4" stroke="#FFFFFF" x1="22.20625106532509" y1="377.2299304713908" x2="312.23730556086235" y2="3.3241480393127745"></line><line stroke-width="0.4" stroke="#FFFFFF" x1="21.096949071104916" y1="374.62920834206795" x2="470.64910287889654" y2="450.6652637168917"></line><line stroke-width="0.4" stroke="#FFFFFF" x1="20.014942101301443" y1="372.0170124409862" x2="9.20002690195156" y2="339.88114217768066"></line><line stroke-width="0.4" stroke="#FFFFFF" x1="18.96034881017215" y1="369.3936292248631" x2="353.4345884812358" y2="13.214740600308517"></line><line stroke-width="0.4" stroke="#FFFFFF" x1="17.933284845755537" y1="366.75934637723105" x2="439.9165055834561" y2="479.82940959338214"></line><line stroke-width="0.4" stroke="#FFFFFF" x1="16.933862837189338" y1="364.1144527768903" x2="1.4790882505662353" y2="298.2226850822665"></line><line stroke-width="0.4" stroke="#FFFFFF" x1="15.962192382359149" y1="361.4592384662288" x2="392.5774349296777" y2="29.428238469140695"></line><line stroke-width="0.4" stroke="#FFFFFF" x1="15.018380035880227" y1="358.79399461941773" x2="405.0000000000001" y2="503.8268590217984"></line><line stroke-width="0.4" stroke="#FFFFFF" x1="14.102529297411849" y1="356.11901351047885" x2="0.3700256162650817" y2="255.86929181440524"></line><line stroke-width="0.4" stroke="#FFFFFF" x1="13.214740600308517" y1="353.4345884812357" x2="428.70201811896777" y2="51.56541151876419"></line><line stroke-width="0.4" stroke="#FFFFFF" x1="12.355111300605245" y1="350.7410139091435" x2="366.75934637723105" y2="522.0667151542444"></line><line stroke-width="0.4" stroke="#FFFFFF" x1="11.52373566634185" y1="348.03858517500737" x2="5.900147801872436" y2="213.86384347920506"></line><line stroke-width="0.4" stroke="#FFFFFF" x1="10.720704867225436" y1="345.3275986305921" x2="460.91883092036784" y2="79.08116907963219"></line><line stroke-width="0.4" stroke="#FFFFFF" x1="9.94610696463235" y1="342.6083515661219" x2="326.1361565207951" y2="534.0998521981276"></line><line stroke-width="0.4" stroke="#FFFFFF" x1="9.20002690195156" y1="339.88114217768066" x2="17.93328484575551" y2="173.240653622769"></line><line stroke-width="0.4" stroke="#FFFFFF" x1="8.482546495269617" y1="337.1462695345108" x2="488.4345884812358" y2="111.29798188103223"></line><line stroke-width="0.4" stroke="#FFFFFF" x1="7.793744424398312" y1="334.404033546217" x2="284.1307081855949" y2="539.6299743837349"></line><line stroke-width="0.4" stroke="#FFFFFF" x1="7.133696224246762" y1="331.6547349298772" x2="36.17314097820153" y2="135.00000000000009"></line><line stroke-width="0.4" stroke="#FFFFFF" x1="6.502474276538237" y1="328.89867517706654" x2="510.5717615308593" y2="147.42256507032232"></line><line stroke-width="0.4" stroke="#FFFFFF" x1="5.900147801872436" y1="326.136156520795" x2="241.77731491773366" y2="538.5209117494338"></line><line stroke-width="0.4" stroke="#FFFFFF" x1="5.326782852135125" y1="323.367481902364" x2="60.170590406617805" y2="100.08349441654394"></line><line stroke-width="0.4" stroke="#FFFFFF" x1="4.782442303254072" y1="320.59295493814574" x2="526.7852593996914" y2="186.56541151876414"></line><line stroke-width="0.4" stroke="#FFFFFF" x1="4.267185848304678" y1="317.81287988628753" x2="200.11885782231937" y2="530.7999730980484"></line><line stroke-width="0.4" stroke="#FFFFFF" x1="3.781069990963715" y1="315.0275616133478" x2="89.33473628310821" y2="69.35089712110363"></line><line stroke-width="0.4" stroke="#FFFFFF" x1="3.3241480393127745" y1="312.23730556086224" x2="536.6758519606872" y2="227.7626944391376"></line><line stroke-width="0.4" stroke="#FFFFFF" x1="2.8964700999931665" y1="309.44241771185125" x2="160.18110636953395" y2="516.6572735635023"></line><line stroke-width="0.4" stroke="#FFFFFF" x1="2.4980830727102443" y1="306.6432045572622" x2="122.9474605459427" y2="43.55894665473551"></line><line stroke-width="0.4" stroke="#FFFFFF" x1="2.1290306450910066" y1="303.83997306236233" x2="540" y2="270"></line><line stroke-width="0.4" stroke="#FFFFFF" x1="1.7893532878929932" y1="301.03303063307413" x2="122.94746054594268" y2="496.4410533452645"></line><line stroke-width="0.4" stroke="#FFFFFF" x1="1.4790882505662353" y1="298.2226850822665" x2="160.18110636953395" y2="23.34272643649777"></line><line stroke-width="0.4" stroke="#FFFFFF" x1="1.1982695571683735" y1="295.40924459599887" x2="536.6758519606872" y2="312.23730556086224"></line><line stroke-width="0.4" stroke="#FFFFFF" x1="0.946928002633797" y1="292.5930176997251" x2="89.33473628310847" y2="470.6491028788966"></line><line stroke-width="0.4" stroke="#FFFFFF" x1="0.7250911493962917" y1="289.7743132244607" x2="200.11885782231937" y2="9.20002690195156"></line><line stroke-width="0.4" stroke="#FFFFFF" x1="0.532783324366676" y1="286.9534402729147" x2="526.7852593996914" y2="353.4345884812358"></line><line stroke-width="0.4" stroke="#FFFFFF" x1="0.3700256162650817" y1="284.13070818559504" x2="60.170590406618004" y2="439.9165055834563"></line><line stroke-width="0.4" stroke="#FFFFFF" x1="0.2368358733082232" y1="281.30642650688384" x2="241.77731491773355" y2="1.4790882505662353"></line><line stroke-width="0.4" stroke="#FFFFFF" x1="0.1332287012524489" y1="278.4809049510948" x2="510.57176153085936" y2="392.5774349296776"></line><line stroke-width="0.4" stroke="#FFFFFF" x1="0.0592154617917231" y1="275.65445336850644" x2="36.17314097820156" y2="405"></line><line stroke-width="0.4" stroke="#FFFFFF" x1="0.014804271311732009" y1="272.8273817113866" x2="284.1307081855948" y2="0.3700256162650817"></line><line stroke-width="0.4" stroke="#FFFFFF" x1="0" y1="270.00000000000017" x2="488.4345884812359" y2="428.70201811896766"></line><line stroke-width="0.4" stroke="#FFFFFF" x1="0.014804271311732009" y1="267.1726182886137" x2="17.933284845755537" y2="366.75934637723105"></line><line stroke-width="0.4" stroke="#FFFFFF" x1="0.0592154617917231" y1="264.3455466314936" x2="326.136156520795" y2="5.900147801872436"></line><line stroke-width="0.4" stroke="#FFFFFF" x1="0.1332287012524489" y1="261.51909504890534" x2="460.91883092036784" y2="460.9188309203678"></line><line stroke-width="0.4" stroke="#FFFFFF" x1="0.2368358733082232" y1="258.6935734931162" x2="5.900147801872436" y2="326.136156520795"></line><line stroke-width="0.4" stroke="#FFFFFF" x1="0.3700256162650817" y1="255.86929181440524" x2="366.75934637723105" y2="17.933284845755537"></line><line stroke-width="0.4" stroke="#FFFFFF" x1="0.532783324366676" y1="253.0465597270854" x2="428.7020181189678" y2="488.4345884812357"></line><line stroke-width="0.4" stroke="#FFFFFF" x1="0.7250911493962917" y1="250.2256867755394" x2="0.3700256162650817" y2="284.13070818559504"></line><line stroke-width="0.4" stroke="#FFFFFF" x1="0.946928002633797" y1="247.40698230027493" x2="405" y2="36.17314097820156"></line><line stroke-width="0.4" stroke="#FFFFFF" x1="1.1982695571683735" y1="244.5907554040012" x2="392.5774349296777" y2="510.5717615308593"></line><line stroke-width="0.4" stroke="#FFFFFF" x1="1.4790882505661784" y1="241.7773149177338" x2="1.4790882505661784" y2="241.7773149177338"></line><line stroke-width="0.4" stroke="#FFFFFF" x1="1.7893532878929364" y1="238.96696936692618" x2="439.9165055834561" y2="60.17059040661786"></line><line stroke-width="0.4" stroke="#FFFFFF" x1="2.1290306450910066" y1="236.16002693763772" x2="353.4345884812358" y2="526.7852593996914"></line><line stroke-width="0.4" stroke="#FFFFFF" x1="2.4980830727102443" y1="233.35679544273785" x2="9.20002690195156" y2="200.1188578223194"></line><line stroke-width="0.4" stroke="#FFFFFF" x1="2.8964700999931665" y1="230.55758228814884" x2="470.64910287889643" y2="89.33473628310827"></line><line stroke-width="0.4" stroke="#FFFFFF" x1="3.3241480393127745" y1="227.76269443913782" x2="312.23730556086247" y2="536.6758519606872"></line><line stroke-width="0.4" stroke="#FFFFFF" x1="3.7810699909636583" y1="224.97243838665247" x2="23.34272643649777" y2="160.18110636953395"></line><line stroke-width="0.4" stroke="#FFFFFF" x1="4.267185848304678" y1="222.18712011371252" x2="496.44105334526444" y2="122.94746054594265"></line><line stroke-width="0.4" stroke="#FFFFFF" x1="4.782442303254072" y1="219.40704506185432" x2="270" y2="540"></line><line stroke-width="0.4" stroke="#FFFFFF" x1="5.326782852135068" y1="216.63251809763608" x2="43.55894665473551" y2="122.94746054594268"></line><line stroke-width="0.4" stroke="#FFFFFF" x1="5.900147801872436" y1="213.86384347920506" x2="516.6572735635023" y2="160.1811063695339"></line><line stroke-width="0.4" stroke="#FFFFFF" x1="6.502474276538123" y1="211.10132482293375" x2="227.76269443913782" y2="536.6758519606872"></line><line stroke-width="0.4" stroke="#FFFFFF" x1="7.133696224246705" y1="208.34526507012313" x2="69.3508971211034" y2="89.33473628310847"></line><line stroke-width="0.4" stroke="#FFFFFF" x1="7.793744424398312" y1="205.59596645378303" x2="530.7999730980484" y2="200.11885782231928"></line><line stroke-width="0.4" stroke="#FFFFFF" x1="8.48254649526956" y1="202.85373046548926" x2="186.56541151876434" y2="526.7852593996915"></line><line stroke-width="0.4" stroke="#FFFFFF" x1="9.20002690195156" y1="200.1188578223194" x2="100.08349441654377" y2="60.17059040661795"></line><line stroke-width="0.4" stroke="#FFFFFF" x1="9.946106964632236" y1="197.39164843387843" x2="538.5209117494337" y2="241.77731491773352"></line><line stroke-width="0.4" stroke="#FFFFFF" x1="10.720704867225322" y1="194.6724013694082" x2="147.42256507032226" y2="510.57176153085925"></line><line stroke-width="0.4" stroke="#FFFFFF" x1="11.523735666341793" y1="191.9614148249927" x2="135.0000000000001" y2="36.17314097820153"></line><line stroke-width="0.4" stroke="#FFFFFF" x1="12.355111300605245" y1="189.25898609085658" x2="539.6299743837349" y2="284.1307081855948"></line><line stroke-width="0.4" stroke="#FFFFFF" x1="13.21474060030846" y1="186.56541151876434" x2="111.2979818810322" y2="488.4345884812358"></line><line stroke-width="0.4" stroke="#FFFFFF" x1="14.102529297411849" y1="183.8809864895212" x2="173.24065362276895" y2="17.933284845755537"></line><line stroke-width="0.4" stroke="#FFFFFF" x1="15.018380035880028" y1="181.20600538058278" x2="534.0998521981276" y2="326.136156520795"></line><line stroke-width="0.4" stroke="#FFFFFF" x1="15.96219238235912" y1="178.5407615337713" x2="79.08116907963228" y2="460.9188309203679"></line><line stroke-width="0.4" stroke="#FFFFFF" x1="16.933862837189338" y1="175.8855472231098" x2="213.86384347920497" y2="5.900147801872436"></line><line stroke-width="0.4" stroke="#FFFFFF" x1="17.93328484575551" y1="173.240653622769" x2="522.0667151542445" y2="366.75934637723105"></line><line stroke-width="0.4" stroke="#FFFFFF" x1="18.960348810172093" y1="170.60637077513695" x2="51.56541151876428" y2="428.7020181189679"></line><line stroke-width="0.4" stroke="#FFFFFF" x1="20.01494210130133" y1="167.98298755901408" x2="255.8692918144051" y2="0.3700256162650817"></line><line stroke-width="0.4" stroke="#FFFFFF" x1="21.096949071104802" y1="165.37079165793233" x2="503.82685902179844" y2="404.99999999999994"></line><line stroke-width="0.4" stroke="#FFFFFF" x1="22.206251065325063" y1="162.7700695286093" x2="29.42823846914075" y2="392.5774349296778"></line><line stroke-width="0.4" stroke="#FFFFFF" x1="23.34272643649777" y1="160.18110636953395" x2="298.2226850822664" y2="1.4790882505662353"></line><line stroke-width="0.4" stroke="#FFFFFF" x1="24.506250557291395" y1="157.60418608969184" x2="479.82940959338214" y2="439.91650558345606"></line><line stroke-width="0.4" stroke="#FFFFFF" x1="25.696695834174676" y1="155.03959127743047" x2="13.214740600308517" y2="353.4345884812357"></line><line stroke-width="0.4" stroke="#FFFFFF" x1="26.913931721407636" y1="152.4876031694718" x2="339.88114217768054" y2="9.20002690195156"></line><line stroke-width="0.4" stroke="#FFFFFF" x1="28.15782473535856" y1="149.94850162006958" x2="450.6652637168918" y2="470.64910287889643"></line><line stroke-width="0.4" stroke="#FFFFFF" x1="29.428238469140723" y1="147.4225650703223" x2="3.3241480393127745" y2="312.23730556086224"></line><line stroke-width="0.4" stroke="#FFFFFF" x1="30.725033607571987" y1="144.9100705176374" x2="379.818893630466" y2="23.342726436497742"></line><line stroke-width="0.4" stroke="#FFFFFF" x1="32.04806794245209" y1="142.41129348535543" x2="417.05253945405735" y2="496.44105334526444"></line><line stroke-width="0.4" stroke="#FFFFFF" x1="33.39719638815674" y1="139.92650799253707" x2="0" y2="270.00000000000017"></line><line stroke-width="0.4" stroke="#FFFFFF" x1="34.77227099754879" y1="137.4559865239121" x2="417.0525394540573" y2="43.55894665473551"></line><line stroke-width="0.4" stroke="#FFFFFF" x1="36.17314097820153" y1="135.00000000000009" x2="379.8188936304661" y2="516.6572735635023"></line><line stroke-width="0.4" stroke="#FFFFFF" x1="37.599652708935224" y1="132.5588177473998" x2="3.3241480393127745" y2="227.76269443913782"></line><line stroke-width="0.4" stroke="#FFFFFF" x1="39.051649756663096" y1="130.132707469255" x2="450.66526371689173" y2="69.35089712110354"></line><line stroke-width="0.4" stroke="#FFFFFF" x1="40.528972893546666" y1="127.72193521589716" x2="339.88114217768066" y2="530.7999730980484"></line><line stroke-width="0.4" stroke="#FFFFFF" x1="42.03146011445591" y1="125.32676535567097" x2="13.21474060030846" y2="186.56541151876434"></line><line stroke-width="0.4" stroke="#FFFFFF" x1="43.55894665473551" y1="122.94746054594268" x2="479.8294095933821" y2="100.08349441654383"></line><line stroke-width="0.4" stroke="#FFFFFF" x1="45.11126500827319" y1="120.58428170429704" x2="298.2226850822666" y2="538.5209117494337"></line><line stroke-width="0.4" stroke="#FFFFFF" x1="46.688244945868234" y1="118.23748797992482" x2="29.428238469140723" y2="147.4225650703223"></line><line stroke-width="0.4" stroke="#FFFFFF" x1="48.289713533899885" y1="115.90733672520349" x2="503.8268590217984" y2="134.99999999999994"></line><line stroke-width="0.4" stroke="#FFFFFF" x1="49.91549515329024" y1="113.5940834674769" x2="255.8692918144051" y2="539.6299743837349"></line><line stroke-width="0.4" stroke="#FFFFFF" x1="51.56541151876425" y1="111.2979818810322" x2="51.56541151876425" y2="111.2979818810322"></line><line stroke-width="0.4" stroke="#FFFFFF" x1="53.239281698399" y1="109.01928375928381" x2="522.0667151542444" y2="173.24065362276892"></line><line stroke-width="0.4" stroke="#FFFFFF" x1="54.93692213346699" y1="106.75823898715882" x2="213.86384347920503" y2="534.0998521981276"></line><line stroke-width="0.4" stroke="#FFFFFF" x1="56.65814665856348" y1="104.51509551369651" x2="79.08116907963208" y2="79.08116907963228"></line><line stroke-width="0.4" stroke="#FFFFFF" x1="58.40276652202314" y1="102.2900993248563" x2="534.0998521981276" y2="213.86384347920495"></line><line stroke-width="0.4" stroke="#FFFFFF" x1="60.170590406617805" y1="100.08349441654394" x2="173.240653622769" y2="522.0667151542445"></line><line stroke-width="0.4" stroke="#FFFFFF" x1="61.961424450536896" y1="97.8955227678538" x2="111.29798188103223" y2="51.56541151876422"></line><line stroke-width="0.4" stroke="#FFFFFF" x1="63.775072268646625" y1="95.72642431453329" x2="539.6299743837349" y2="255.86929181440507"></line><line stroke-width="0.4" stroke="#FFFFFF" x1="65.61133497402568" y1="93.57643692267163" x2="135.00000000000006" y2="503.82685902179844"></line><line stroke-width="0.4" stroke="#FFFFFF" x1="67.47001119977588" y1="91.44579636261403" x2="147.4225650703221" y2="29.42823846914081"></line><line stroke-width="0.4" stroke="#FFFFFF" x1="69.3508971211034" y1="89.33473628310847" x2="538.5209117494337" y2="298.2226850822665"></line><line stroke-width="0.4" stroke="#FFFFFF" x1="71.25378647767178" y1="87.24348818568154" x2="100.08349441654394" y2="479.82940959338214"></line><line stroke-width="0.4" stroke="#FFFFFF" x1="73.17847059621883" y1="85.17228139925413" x2="186.56541151876417" y2="13.214740600308573"></line><line stroke-width="0.4" stroke="#FFFFFF" x1="75.1247384134422" y1="83.1213430549902" x2="530.7999730980484" y2="339.88114217768054"></line><line stroke-width="0.4" stroke="#FFFFFF" x1="77.09237649914294" y1="81.09089806139153" x2="69.35089712110357" y2="450.6652637168918"></line><line stroke-width="0.4" stroke="#FFFFFF" x1="79.08116907963208" y1="79.08116907963228" x2="227.76269443913768" y2="3.3241480393127745"></line><line stroke-width="0.4" stroke="#FFFFFF" x1="81.09089806139127" y1="77.09237649914314" x2="516.6572735635023" y2="379.8188936304661"></line><line stroke-width="0.4" stroke="#FFFFFF" x1="83.12134305499012" y1="75.12473841344223" x2="43.558946654735536" y2="417.0525394540574"></line><line stroke-width="0.4" stroke="#FFFFFF" x1="85.17228139925408" y1="73.17847059621889" x2="269.99999999999994" y2="0"></line><line stroke-width="0.4" stroke="#FFFFFF" x1="87.24348818568149" y1="71.25378647767184" x2="496.44105334526455" y2="417.05253945405724"></line><line stroke-width="0.4" stroke="#FFFFFF" x1="89.33473628310821" y1="69.35089712110363" x2="23.3427264364978" y2="379.8188936304661"></line><line stroke-width="0.4" stroke="#FFFFFF" x1="91.44579636261398" y1="67.47001119977594" x2="312.23730556086235" y2="3.3241480393127745"></line><line stroke-width="0.4" stroke="#FFFFFF" x1="93.57643692267149" y1="65.61133497402582" x2="470.64910287889654" y2="450.6652637168917"></line><line stroke-width="0.4" stroke="#FFFFFF" x1="95.72642431453315" y1="63.77507226864677" x2="9.20002690195156" y2="339.88114217768066"></line><line stroke-width="0.4" stroke="#FFFFFF" x1="97.89552276785383" y1="61.96142445053687" x2="353.4345884812358" y2="13.214740600308517"></line><line stroke-width="0.4" stroke="#FFFFFF" x1="100.08349441654377" y1="60.17059040661795" x2="439.9165055834561" y2="479.82940959338214"></line><line stroke-width="0.4" stroke="#FFFFFF" x1="102.29009932485599" y1="58.40276652202343" x2="1.4790882505662353" y2="298.2226850822665"></line><line stroke-width="0.4" stroke="#FFFFFF" x1="104.51509551369634" y1="56.658146658563595" x2="392.5774349296777" y2="29.428238469140695"></line><line stroke-width="0.4" stroke="#FFFFFF" x1="106.75823898715865" y1="54.93692213346711" x2="405.0000000000001" y2="503.8268590217984"></line><line stroke-width="0.4" stroke="#FFFFFF" x1="109.01928375928384" y1="53.239281698399" x2="0.3700256162650817" y2="255.86929181440524"></line><line stroke-width="0.4" stroke="#FFFFFF" x1="111.29798188103223" y1="51.56541151876422" x2="428.70201811896777" y2="51.56541151876419"></line><line stroke-width="0.4" stroke="#FFFFFF" x1="113.59408346747654" y1="49.91549515329049" x2="366.75934637723105" y2="522.0667151542444"></line><line stroke-width="0.4" stroke="#FFFFFF" x1="115.90733672520352" y1="48.28971353389986" x2="5.900147801872436" y2="213.86384347920506"></line><line stroke-width="0.4" stroke="#FFFFFF" x1="118.23748797992465" y1="46.68824494586838" x2="460.91883092036784" y2="79.08116907963219"></line><line stroke-width="0.4" stroke="#FFFFFF" x1="120.58428170429687" y1="45.11126500827328" x2="326.1361565207951" y2="534.0998521981276"></line><line stroke-width="0.4" stroke="#FFFFFF" x1="122.9474605459427" y1="43.55894665473551" x2="17.93328484575551" y2="173.240653622769"></line><line stroke-width="0.4" stroke="#FFFFFF" x1="125.32676535567077" y1="42.031460114455996" x2="488.4345884812358" y2="111.29798188103223"></line><line stroke-width="0.4" stroke="#FFFFFF" x1="127.72193521589679" y1="40.52897289354689" x2="284.1307081855949" y2="539.6299743837349"></line><line stroke-width="0.4" stroke="#FFFFFF" x1="130.13270746925483" y1="39.05164975666321" x2="36.17314097820153" y2="135.00000000000009"></line><line stroke-width="0.4" stroke="#FFFFFF" x1="132.5588177473996" y1="37.59965270893531" x2="510.5717615308593" y2="147.42256507032232"></line><line stroke-width="0.4" stroke="#FFFFFF" x1="135.0000000000001" y1="36.17314097820153" x2="241.77731491773366" y2="538.5209117494338"></line><line stroke-width="0.4" stroke="#FFFFFF" x1="137.45598652391192" y1="34.77227099754887" x2="60.170590406617805" y2="100.08349441654394"></line><line stroke-width="0.4" stroke="#FFFFFF" x1="139.92650799253667" y1="33.39719638815694" x2="526.7852593996914" y2="186.56541151876414"></line><line stroke-width="0.4" stroke="#FFFFFF" x1="142.4112934853555" y1="32.048067942452064" x2="200.11885782231937" y2="530.7999730980484"></line><line stroke-width="0.4" stroke="#FFFFFF" x1="144.91007051763722" y1="30.725033607572072" x2="89.33473628310821" y2="69.35089712110363"></line><line stroke-width="0.4" stroke="#FFFFFF" x1="147.4225650703221" y1="29.42823846914081" x2="536.6758519606872" y2="227.7626944391376"></line><line stroke-width="0.4" stroke="#FFFFFF" x1="149.9485016200696" y1="28.157824735358503" x2="160.18110636953395" y2="516.6572735635023"></line><line stroke-width="0.4" stroke="#FFFFFF" x1="152.48760316947144" y1="26.913931721407806" x2="122.9474605459427" y2="43.55894665473551"></line><line stroke-width="0.4" stroke="#FFFFFF" x1="155.03959127743053" y1="25.696695834174648" x2="540" y2="270"></line><line stroke-width="0.4" stroke="#FFFFFF" x1="157.60418608969167" y1="24.50625055729151" x2="122.94746054594268" y2="496.4410533452645"></line></svg>